<svg id="visual" viewBox="0 0 900 675" width="900" height="675" xmlns="http://www.w3.org/2000/svg" xmlns:xlink="http://www.w3.org/1999/xlink" version="1.1"><rect x="0" y="0" width="900" height="675" fill="#001220"></rect><defs><linearGradient id="grad1_0" x1="25%" y1="0%" x2="100%" y2="100%"><stop offset="23.333333333333336%" stop-color="#fbae3c" stop-opacity="1"></stop><stop offset="76.66666666666666%" stop-color="#fbae3c" stop-opacity="1"></stop></linearGradient></defs><defs><linearGradient id="grad1_1" x1="25%" y1="0%" x2="100%" y2="100%"><stop offset="23.333333333333336%" stop-color="#fbae3c" stop-opacity="1"></stop><stop offset="76.66666666666666%" stop-color="#e1685e" stop-opacity="1"></stop></linearGradient></defs><defs><linearGradient id="grad1_2" x1="25%" y1="0%" x2="100%" y2="100%"><stop offset="23.333333333333336%" stop-color="#96446e" stop-opacity="1"></stop><stop offset="76.66666666666666%" stop-color="#e1685e" stop-opacity="1"></stop></linearGradient></defs><defs><linearGradient id="grad1_3" x1="25%" y1="0%" x2="100%" y2="100%"><stop offset="23.333333333333336%" stop-color="#96446e" stop-opacity="1"></stop><stop offset="76.66666666666666%" stop-color="#3d3056" stop-opacity="1"></stop></linearGradient></defs><defs><linearGradient id="grad1_4" x1="25%" y1="0%" x2="100%" y2="100%"><stop offset="23.333333333333336%" stop-color="#001220" stop-opacity="1"></stop><stop offset="76.66666666666666%" stop-color="#3d3056" stop-opacity="1"></stop></linearGradient></defs><defs><linearGradient id="grad2_0" x1="0%" y1="0%" x2="75%" y2="100%"><stop offset="23.333333333333336%" stop-color="#fbae3c" stop-opacity="1"></stop><stop offset="76.66666666666666%" stop-color="#fbae3c" stop-opacity="1"></stop></linearGradient></defs><defs><linearGradient id="grad2_1" x1="0%" y1="0%" x2="75%" y2="100%"><stop offset="23.333333333333336%" stop-color="#e1685e" stop-opacity="1"></stop><stop offset="76.66666666666666%" stop-color="#fbae3c" stop-opacity="1"></stop></linearGradient></defs><defs><linearGradient id="grad2_2" x1="0%" y1="0%" x2="75%" y2="100%"><stop offset="23.333333333333336%" stop-color="#e1685e" stop-opacity="1"></stop><stop offset="76.66666666666666%" stop-color="#96446e" stop-opacity="1"></stop></linearGradient></defs><defs><linearGradient id="grad2_3" x1="0%" y1="0%" x2="75%" y2="100%"><stop offset="23.333333333333336%" stop-color="#3d3056" stop-opacity="1"></stop><stop offset="76.66666666666666%" stop-color="#96446e" stop-opacity="1"></stop></linearGradient></defs><defs><linearGradient id="grad2_4" x1="0%" y1="0%" x2="75%" y2="100%"><stop offset="23.333333333333336%" stop-color="#3d3056" stop-opacity="1"></stop><stop offset="76.66666666666666%" stop-color="#001220" stop-opacity="1"></stop></linearGradient></defs><g transform="translate(900, 0)"><path d="M0 506.3C-31.2 457.3 -62.5 408.3 -108.7 405.7C-154.9 403.1 -216.2 446.8 -253.1 438.4C-290 430 -302.6 369.5 -332.3 332.3C-362.1 295.2 -409 281.4 -433 250C-457 218.6 -458.2 169.6 -466.5 125C-474.9 80.4 -490.6 40.2 -506.2 0L0 0Z" fill="#18223c"></path><path d="M0 405C-25 365.8 -50 326.6 -87 324.6C-124 322.5 -173 357.5 -202.5 350.7C-232 344 -242.1 295.6 -265.9 265.9C-289.7 236.1 -327.2 225.1 -346.4 200C-365.6 174.9 -366.5 135.7 -373.2 100C-379.9 64.3 -392.5 32.2 -405 0L0 0Z" fill="#683a67"></path><path d="M0 303.8C-18.7 274.4 -37.5 245 -65.2 243.4C-93 241.8 -129.7 268.1 -151.9 263.1C-174 258 -181.6 221.7 -199.4 199.4C-217.2 177.1 -245.4 168.8 -259.8 150C-274.2 131.2 -274.9 101.8 -279.9 75C-285 48.2 -294.4 24.1 -303.7 0L0 0Z" fill="#c0526a"></path><path d="M0 202.5C-12.5 182.9 -25 163.3 -43.5 162.3C-62 161.2 -86.5 178.7 -101.2 175.4C-116 172 -121 147.8 -132.9 132.9C-144.8 118.1 -163.6 112.6 -173.2 100C-182.8 87.4 -183.3 67.8 -186.6 50C-190 32.2 -196.2 16.1 -202.5 0L0 0Z" fill="#f6884d"></path><path d="M0 101.3C-6.2 91.5 -12.5 81.7 -21.7 81.1C-31 80.6 -43.2 89.4 -50.6 87.7C-58 86 -60.5 73.9 -66.5 66.5C-72.4 59 -81.8 56.3 -86.6 50C-91.4 43.7 -91.6 33.9 -93.3 25C-95 16.1 -98.1 8 -101.2 0L0 0Z" fill="#fbae3c"></path></g><g transform="translate(0, 675)"><path d="M0 -506.2C46.3 -507.4 92.6 -508.5 131 -489C169.5 -469.5 200.1 -429.2 229 -396.6C257.9 -364.1 285.1 -339.1 311.8 -311.8C338.6 -284.5 364.9 -254.8 385.4 -222.5C405.8 -190.2 420.3 -155.3 439.5 -117.8C458.7 -80.2 482.5 -40.1 506.3 0L0 0Z" fill="#18223c"></path><path d="M0 -405C37 -405.9 74.1 -406.8 104.8 -391.2C135.6 -375.6 160.1 -343.4 183.2 -317.3C206.3 -291.3 228.1 -271.3 249.5 -249.5C270.9 -227.6 292 -203.8 308.3 -178C324.7 -152.2 336.3 -124.2 351.6 -94.2C366.9 -64.2 386 -32.1 405 0L0 0Z" fill="#683a67"></path><path d="M0 -303.7C27.8 -304.4 55.5 -305.1 78.6 -293.4C101.7 -281.7 120.1 -257.5 137.4 -238C154.7 -218.4 171 -203.5 187.1 -187.1C203.2 -170.7 219 -152.9 231.2 -133.5C243.5 -114.1 252.2 -93.2 263.7 -70.7C275.2 -48.1 289.5 -24.1 303.8 0L0 0Z" fill="#c0526a"></path><path d="M0 -202.5C18.5 -203 37 -203.4 52.4 -195.6C67.8 -187.8 80 -171.7 91.6 -158.7C103.2 -145.6 114 -135.7 124.7 -124.7C135.4 -113.8 146 -101.9 154.2 -89C162.3 -76.1 168.1 -62.1 175.8 -47.1C183.5 -32.1 193 -16 202.5 0L0 0Z" fill="#f6884d"></path><path d="M0 -101.2C9.3 -101.5 18.5 -101.7 26.2 -97.8C33.9 -93.9 40 -85.8 45.8 -79.3C51.6 -72.8 57 -67.8 62.4 -62.4C67.7 -56.9 73 -51 77.1 -44.5C81.2 -38 84.1 -31.1 87.9 -23.6C91.7 -16 96.5 -8 101.3 0L0 0Z" fill="#fbae3c"></path></g></svg>