<svg id="visual" viewBox="0 0 900 675" width="900" height="675" xmlns="http://www.w3.org/2000/svg" xmlns:xlink="http://www.w3.org/1999/xlink" version="1.1"><rect x="0" y="0" width="900" height="675" fill="#F2D8E1"></rect><defs><linearGradient id="grad1_0" x1="25%" y1="0%" x2="100%" y2="100%"><stop offset="23.333333333333336%" stop-color="#d90467" stop-opacity="1"></stop><stop offset="76.66666666666666%" stop-color="#d90467" stop-opacity="1"></stop></linearGradient></defs><defs><linearGradient id="grad1_1" x1="25%" y1="0%" x2="100%" y2="100%"><stop offset="23.333333333333336%" stop-color="#d90467" stop-opacity="1"></stop><stop offset="76.66666666666666%" stop-color="#e76892" stop-opacity="1"></stop></linearGradient></defs><defs><linearGradient id="grad1_2" x1="25%" y1="0%" x2="100%" y2="100%"><stop offset="23.333333333333336%" stop-color="#efa2bb" stop-opacity="1"></stop><stop offset="76.66666666666666%" stop-color="#e76892" stop-opacity="1"></stop></linearGradient></defs><defs><linearGradient id="grad1_3" x1="25%" y1="0%" x2="100%" y2="100%"><stop offset="23.333333333333336%" stop-color="#efa2bb" stop-opacity="1"></stop><stop offset="76.66666666666666%" stop-color="#f2d8e1" stop-opacity="1"></stop></linearGradient></defs><defs><linearGradient id="grad2_0" x1="0%" y1="0%" x2="75%" y2="100%"><stop offset="23.333333333333336%" stop-color="#d90467" stop-opacity="1"></stop><stop offset="76.66666666666666%" stop-color="#d90467" stop-opacity="1"></stop></linearGradient></defs><defs><linearGradient id="grad2_1" x1="0%" y1="0%" x2="75%" y2="100%"><stop offset="23.333333333333336%" stop-color="#e76892" stop-opacity="1"></stop><stop offset="76.66666666666666%" stop-color="#d90467" stop-opacity="1"></stop></linearGradient></defs><defs><linearGradient id="grad2_2" x1="0%" y1="0%" x2="75%" y2="100%"><stop offset="23.333333333333336%" stop-color="#e76892" stop-opacity="1"></stop><stop offset="76.66666666666666%" stop-color="#efa2bb" stop-opacity="1"></stop></linearGradient></defs><defs><linearGradient id="grad2_3" x1="0%" y1="0%" x2="75%" y2="100%"><stop offset="23.333333333333336%" stop-color="#f2d8e1" stop-opacity="1"></stop><stop offset="76.66666666666666%" stop-color="#efa2bb" stop-opacity="1"></stop></linearGradient></defs><g transform="translate(900, 0)"><path d="M0 534.4C-65.5 538.2 -131 542 -161 495.5C-191 449 -185.6 352.2 -235.1 323.6C-284.6 295 -388.9 334.5 -432.3 314.1C-475.7 293.7 -458.2 213.4 -465.1 151.1C-471.9 88.8 -503.1 44.4 -534.4 0L0 0Z" fill="#f1bdcf"></path><path d="M0 400.8C-49.1 403.6 -98.2 406.5 -120.7 371.6C-143.3 336.8 -139.2 264.2 -176.3 242.7C-213.4 221.2 -291.7 250.9 -324.2 235.6C-356.8 220.3 -343.7 160.1 -348.8 113.3C-353.9 66.6 -377.4 33.3 -400.8 0L0 0Z" fill="#eb86a7"></path><path d="M0 267.2C-32.7 269.1 -65.5 271 -80.5 247.8C-95.5 224.5 -92.8 176.1 -117.6 161.8C-142.3 147.5 -194.5 167.2 -216.2 157C-237.9 146.9 -229.1 106.7 -232.5 75.6C-236 44.4 -251.6 22.2 -267.2 0L0 0Z" fill="#e1457d"></path><path d="M0 133.6C-16.4 134.5 -32.7 135.5 -40.2 123.9C-47.8 112.3 -46.4 88.1 -58.8 80.9C-71.1 73.7 -97.2 83.6 -108.1 78.5C-118.9 73.4 -114.6 53.4 -116.3 37.8C-118 22.2 -125.8 11.1 -133.6 0L0 0Z" fill="#d90467"></path></g><g transform="translate(0, 675)"><path d="M0 -534.4C65.7 -542.8 131.5 -551.2 165.1 -508.2C198.8 -465.3 200.3 -371 241 -331.7C281.7 -292.4 361.5 -307.9 385.9 -280.4C410.3 -252.8 379.2 -182.2 394.7 -128.2C410.2 -74.3 472.3 -37.2 534.4 0L0 0Z" fill="#f1bdcf"></path><path d="M0 -400.8C49.3 -407.1 98.6 -413.4 123.8 -381.2C149.1 -349 150.2 -278.3 180.7 -248.8C211.3 -219.3 271.1 -230.9 289.4 -210.3C307.7 -189.6 284.4 -136.6 296 -96.2C307.6 -55.7 354.2 -27.9 400.8 0L0 0Z" fill="#eb86a7"></path><path d="M0 -267.2C32.9 -271.4 65.7 -275.6 82.6 -254.1C99.4 -232.6 100.2 -185.5 120.5 -165.8C140.8 -146.2 180.8 -154 193 -140.2C205.1 -126.4 189.6 -91.1 197.3 -64.1C205.1 -37.2 236.1 -18.6 267.2 0L0 0Z" fill="#e1457d"></path><path d="M0 -133.6C16.4 -135.7 32.9 -137.8 41.3 -127.1C49.7 -116.3 50.1 -92.8 60.2 -82.9C70.4 -73.1 90.4 -77 96.5 -70.1C102.6 -63.2 94.8 -45.5 98.7 -32.1C102.5 -18.6 118.1 -9.3 133.6 0L0 0Z" fill="#d90467"></path></g></svg>